<mxfile host="app.diagrams.net" agent="Mozilla/5.0 (Windows NT 10.0; Win64; x64) AppleWebKit/537.36 (KHTML, like Gecko) Chrome/133.0.0.0 Safari/537.36" version="26.0.16">
  <diagram name="1 oldal" id="6HJYkfweH2awvkiNCbvp">
    <mxGraphModel dx="1861" dy="1615" grid="1" gridSize="10" guides="1" tooltips="1" connect="1" arrows="1" fold="1" page="1" pageScale="1" pageWidth="827" pageHeight="1169" math="0" shadow="0">
      <root>
        <mxCell id="0" />
        <mxCell id="1" parent="0" />
        <mxCell id="C64Jrk6upL9wqdpvDmy1-1" value="&lt;b&gt;Rendelés&lt;/b&gt;" style="rounded=0;whiteSpace=wrap;strokeWidth=3;html=1;" parent="1" vertex="1">
          <mxGeometry x="125" y="190" width="120" height="60" as="geometry" />
        </mxCell>
        <mxCell id="C64Jrk6upL9wqdpvDmy1-3" value="&lt;b&gt;Termek&lt;/b&gt;" style="rounded=0;whiteSpace=wrap;strokeWidth=3;html=1;" parent="1" vertex="1">
          <mxGeometry x="585" y="190" width="120" height="60" as="geometry" />
        </mxCell>
        <mxCell id="C64Jrk6upL9wqdpvDmy1-4" value="&lt;b style=&quot;&quot;&gt;datum&lt;/b&gt;" style="ellipse;whiteSpace=wrap;html=1;" parent="1" vertex="1">
          <mxGeometry x="40" y="280" width="90" height="40" as="geometry" />
        </mxCell>
        <mxCell id="C64Jrk6upL9wqdpvDmy1-5" value="ar" style="ellipse;whiteSpace=wrap;html=1;" parent="1" vertex="1">
          <mxGeometry x="140" y="280" width="90" height="40" as="geometry" />
        </mxCell>
        <mxCell id="C64Jrk6upL9wqdpvDmy1-6" value="&lt;b&gt;darabszám&lt;/b&gt;" style="ellipse;whiteSpace=wrap;html=1;" parent="1" vertex="1">
          <mxGeometry x="240" y="280" width="90" height="40" as="geometry" />
        </mxCell>
        <mxCell id="C64Jrk6upL9wqdpvDmy1-7" value="" style="endArrow=none;html=1;rounded=0;" parent="1" edge="1">
          <mxGeometry width="50" height="50" relative="1" as="geometry">
            <mxPoint x="80" y="280" as="sourcePoint" />
            <mxPoint x="190" y="250" as="targetPoint" />
          </mxGeometry>
        </mxCell>
        <mxCell id="C64Jrk6upL9wqdpvDmy1-8" value="" style="endArrow=none;html=1;rounded=0;exitX=0.5;exitY=0;exitDx=0;exitDy=0;" parent="1" edge="1">
          <mxGeometry width="50" height="50" relative="1" as="geometry">
            <mxPoint x="270" y="280" as="sourcePoint" />
            <mxPoint x="190" y="250" as="targetPoint" />
          </mxGeometry>
        </mxCell>
        <mxCell id="C64Jrk6upL9wqdpvDmy1-9" value="" style="endArrow=none;html=1;rounded=0;entryX=0.5;entryY=1;entryDx=0;entryDy=0;exitX=0.5;exitY=0;exitDx=0;exitDy=0;" parent="1" source="C64Jrk6upL9wqdpvDmy1-5" target="C64Jrk6upL9wqdpvDmy1-1" edge="1">
          <mxGeometry width="50" height="50" relative="1" as="geometry">
            <mxPoint x="162.5" y="280" as="sourcePoint" />
            <mxPoint x="207.5" y="240" as="targetPoint" />
          </mxGeometry>
        </mxCell>
        <mxCell id="SZVWSAwwZCRuz0jDByGa-1" value="" style="endArrow=classic;html=1;rounded=0;entryX=0;entryY=0.5;entryDx=0;entryDy=0;" parent="1" target="C64Jrk6upL9wqdpvDmy1-3" edge="1">
          <mxGeometry width="50" height="50" relative="1" as="geometry">
            <mxPoint x="470" y="220" as="sourcePoint" />
            <mxPoint x="520" y="170" as="targetPoint" />
          </mxGeometry>
        </mxCell>
        <mxCell id="SZVWSAwwZCRuz0jDByGa-2" value="" style="endArrow=classic;html=1;rounded=0;" parent="1" edge="1">
          <mxGeometry width="50" height="50" relative="1" as="geometry">
            <mxPoint x="390" y="219.5" as="sourcePoint" />
            <mxPoint x="260" y="220" as="targetPoint" />
          </mxGeometry>
        </mxCell>
        <mxCell id="SZVWSAwwZCRuz0jDByGa-3" value="" style="endArrow=classic;html=1;rounded=0;entryX=1;entryY=0.5;entryDx=0;entryDy=0;" parent="1" target="C64Jrk6upL9wqdpvDmy1-1" edge="1">
          <mxGeometry width="50" height="50" relative="1" as="geometry">
            <mxPoint x="390" y="219.5" as="sourcePoint" />
            <mxPoint x="250" y="210" as="targetPoint" />
          </mxGeometry>
        </mxCell>
        <mxCell id="SZVWSAwwZCRuz0jDByGa-6" value="&lt;b&gt;R_T&lt;/b&gt;" style="shape=rhombus;whiteSpace=wrap;html=1;strokeWidth=3;" parent="1" vertex="1">
          <mxGeometry x="390" y="180" width="80" height="80" as="geometry" />
        </mxCell>
        <mxCell id="55Ll8s9f8AJblrSIZAg2-5" value="&lt;u&gt;&lt;b&gt;Rkód&lt;/b&gt;&lt;/u&gt;" style="ellipse;whiteSpace=wrap;html=1;" vertex="1" parent="1">
          <mxGeometry x="5" y="200" width="90" height="40" as="geometry" />
        </mxCell>
        <mxCell id="55Ll8s9f8AJblrSIZAg2-6" value="&lt;b&gt;R_V&lt;/b&gt;" style="shape=rhombus;whiteSpace=wrap;html=1;strokeWidth=3;" vertex="1" parent="1">
          <mxGeometry x="145" y="50" width="80" height="80" as="geometry" />
        </mxCell>
        <mxCell id="55Ll8s9f8AJblrSIZAg2-7" value="" style="endArrow=classic;html=1;rounded=0;exitX=0.5;exitY=1;exitDx=0;exitDy=0;entryX=0.5;entryY=0;entryDx=0;entryDy=0;" edge="1" parent="1" source="55Ll8s9f8AJblrSIZAg2-6" target="C64Jrk6upL9wqdpvDmy1-1">
          <mxGeometry width="50" height="50" relative="1" as="geometry">
            <mxPoint x="184.5" y="95" as="sourcePoint" />
            <mxPoint x="180" y="180" as="targetPoint" />
          </mxGeometry>
        </mxCell>
        <mxCell id="55Ll8s9f8AJblrSIZAg2-8" value="" style="endArrow=classic;html=1;rounded=0;exitX=0.5;exitY=1;exitDx=0;exitDy=0;" edge="1" parent="1" source="55Ll8s9f8AJblrSIZAg2-6">
          <mxGeometry width="50" height="50" relative="1" as="geometry">
            <mxPoint x="185" y="140" as="sourcePoint" />
            <mxPoint x="185" y="170" as="targetPoint" />
          </mxGeometry>
        </mxCell>
        <mxCell id="55Ll8s9f8AJblrSIZAg2-9" value="" style="endArrow=none;html=1;rounded=0;entryX=0;entryY=0.5;entryDx=0;entryDy=0;" edge="1" parent="1" target="C64Jrk6upL9wqdpvDmy1-1">
          <mxGeometry width="50" height="50" relative="1" as="geometry">
            <mxPoint x="100" y="220" as="sourcePoint" />
            <mxPoint x="150" y="170" as="targetPoint" />
          </mxGeometry>
        </mxCell>
        <mxCell id="55Ll8s9f8AJblrSIZAg2-11" value="&lt;b&gt;Vevo&lt;/b&gt;" style="rounded=0;whiteSpace=wrap;html=1;" vertex="1" parent="1">
          <mxGeometry x="125" y="-70" width="120" height="60" as="geometry" />
        </mxCell>
        <mxCell id="55Ll8s9f8AJblrSIZAg2-12" value="&lt;u&gt;&lt;b&gt;vkod&lt;/b&gt;&lt;/u&gt;" style="ellipse;whiteSpace=wrap;html=1;" vertex="1" parent="1">
          <mxGeometry x="25" y="-55" width="75" height="30" as="geometry" />
        </mxCell>
        <mxCell id="55Ll8s9f8AJblrSIZAg2-14" value="" style="endArrow=none;html=1;rounded=0;entryX=0;entryY=0.5;entryDx=0;entryDy=0;" edge="1" parent="1" target="55Ll8s9f8AJblrSIZAg2-11">
          <mxGeometry width="50" height="50" relative="1" as="geometry">
            <mxPoint x="100" y="-40" as="sourcePoint" />
            <mxPoint x="150" y="-90" as="targetPoint" />
          </mxGeometry>
        </mxCell>
        <mxCell id="55Ll8s9f8AJblrSIZAg2-16" value="" style="endArrow=classic;html=1;rounded=0;entryX=0.5;entryY=1;entryDx=0;entryDy=0;exitX=0.5;exitY=0;exitDx=0;exitDy=0;" edge="1" parent="1" source="55Ll8s9f8AJblrSIZAg2-6" target="55Ll8s9f8AJblrSIZAg2-11">
          <mxGeometry width="50" height="50" relative="1" as="geometry">
            <mxPoint x="180" y="50" as="sourcePoint" />
            <mxPoint x="230" as="targetPoint" />
          </mxGeometry>
        </mxCell>
        <mxCell id="55Ll8s9f8AJblrSIZAg2-18" value="" style="endArrow=classic;html=1;rounded=0;exitX=0.5;exitY=0;exitDx=0;exitDy=0;" edge="1" parent="1">
          <mxGeometry width="50" height="50" relative="1" as="geometry">
            <mxPoint x="184.5" y="50" as="sourcePoint" />
            <mxPoint x="185" as="targetPoint" />
          </mxGeometry>
        </mxCell>
        <mxCell id="55Ll8s9f8AJblrSIZAg2-22" value="&lt;b style=&quot;&quot;&gt;varos&lt;/b&gt;" style="ellipse;whiteSpace=wrap;html=1;" vertex="1" parent="1">
          <mxGeometry x="70" y="-260" width="75" height="30" as="geometry" />
        </mxCell>
        <mxCell id="55Ll8s9f8AJblrSIZAg2-23" value="&lt;b style=&quot;&quot;&gt;Lakcím&lt;/b&gt;" style="ellipse;whiteSpace=wrap;html=1;" vertex="1" parent="1">
          <mxGeometry x="140" y="-170" width="90" height="30" as="geometry" />
        </mxCell>
        <mxCell id="55Ll8s9f8AJblrSIZAg2-24" value="&lt;b style=&quot;&quot;&gt;utca&lt;/b&gt;" style="ellipse;whiteSpace=wrap;html=1;" vertex="1" parent="1">
          <mxGeometry x="260" y="-260" width="75" height="30" as="geometry" />
        </mxCell>
        <mxCell id="55Ll8s9f8AJblrSIZAg2-25" value="&lt;b style=&quot;&quot;&gt;irsz&lt;/b&gt;" style="ellipse;whiteSpace=wrap;html=1;" vertex="1" parent="1">
          <mxGeometry x="150" y="-260" width="75" height="30" as="geometry" />
        </mxCell>
        <mxCell id="55Ll8s9f8AJblrSIZAg2-27" value="&lt;b&gt;nev&lt;/b&gt;" style="ellipse;whiteSpace=wrap;html=1;" vertex="1" parent="1">
          <mxGeometry x="-10" y="-260" width="75" height="30" as="geometry" />
        </mxCell>
        <mxCell id="55Ll8s9f8AJblrSIZAg2-28" value="" style="endArrow=none;html=1;rounded=0;entryX=0.5;entryY=1;entryDx=0;entryDy=0;exitX=0.5;exitY=0;exitDx=0;exitDy=0;" edge="1" parent="1" source="55Ll8s9f8AJblrSIZAg2-23">
          <mxGeometry width="50" height="50" relative="1" as="geometry">
            <mxPoint x="122.5" y="-170" as="sourcePoint" />
            <mxPoint x="110" y="-230" as="targetPoint" />
          </mxGeometry>
        </mxCell>
        <mxCell id="55Ll8s9f8AJblrSIZAg2-29" value="" style="endArrow=none;html=1;rounded=0;" edge="1" parent="1">
          <mxGeometry width="50" height="50" relative="1" as="geometry">
            <mxPoint x="190" y="-170" as="sourcePoint" />
            <mxPoint x="300" y="-230" as="targetPoint" />
          </mxGeometry>
        </mxCell>
        <mxCell id="55Ll8s9f8AJblrSIZAg2-30" value="" style="endArrow=none;html=1;rounded=0;entryX=0.5;entryY=1;entryDx=0;entryDy=0;exitX=0.5;exitY=0;exitDx=0;exitDy=0;" edge="1" parent="1" source="55Ll8s9f8AJblrSIZAg2-23" target="55Ll8s9f8AJblrSIZAg2-25">
          <mxGeometry width="50" height="50" relative="1" as="geometry">
            <mxPoint x="180" y="-170" as="sourcePoint" />
            <mxPoint x="278" y="-230" as="targetPoint" />
          </mxGeometry>
        </mxCell>
        <mxCell id="55Ll8s9f8AJblrSIZAg2-31" value="" style="endArrow=none;html=1;rounded=0;entryX=0.5;entryY=1;entryDx=0;entryDy=0;exitX=0.5;exitY=0;exitDx=0;exitDy=0;" edge="1" parent="1" source="55Ll8s9f8AJblrSIZAg2-11" target="55Ll8s9f8AJblrSIZAg2-23">
          <mxGeometry width="50" height="50" relative="1" as="geometry">
            <mxPoint x="180" y="-70" as="sourcePoint" />
            <mxPoint x="230" y="-120" as="targetPoint" />
          </mxGeometry>
        </mxCell>
        <mxCell id="55Ll8s9f8AJblrSIZAg2-32" value="" style="endArrow=none;html=1;rounded=0;entryX=0.5;entryY=1;entryDx=0;entryDy=0;exitX=0.5;exitY=0;exitDx=0;exitDy=0;" edge="1" parent="1" source="55Ll8s9f8AJblrSIZAg2-11">
          <mxGeometry width="50" height="50" relative="1" as="geometry">
            <mxPoint x="180" y="-80" as="sourcePoint" />
            <mxPoint x="25" y="-230" as="targetPoint" />
          </mxGeometry>
        </mxCell>
        <mxCell id="55Ll8s9f8AJblrSIZAg2-33" value="" style="endArrow=classic;html=1;rounded=0;" edge="1" parent="1">
          <mxGeometry width="50" height="50" relative="1" as="geometry">
            <mxPoint x="470" y="220" as="sourcePoint" />
            <mxPoint x="570" y="220" as="targetPoint" />
          </mxGeometry>
        </mxCell>
        <mxCell id="55Ll8s9f8AJblrSIZAg2-34" value="&lt;b style=&quot;&quot;&gt;&lt;u&gt;tkod&lt;/u&gt;&lt;/b&gt;" style="ellipse;whiteSpace=wrap;html=1;" vertex="1" parent="1">
          <mxGeometry x="447.5" y="280" width="90" height="40" as="geometry" />
        </mxCell>
        <mxCell id="55Ll8s9f8AJblrSIZAg2-35" value="&lt;b&gt;nev&lt;/b&gt;" style="ellipse;whiteSpace=wrap;html=1;" vertex="1" parent="1">
          <mxGeometry x="552.5" y="280" width="90" height="40" as="geometry" />
        </mxCell>
        <mxCell id="55Ll8s9f8AJblrSIZAg2-36" value="&lt;b&gt;ear&lt;/b&gt;" style="ellipse;whiteSpace=wrap;html=1;" vertex="1" parent="1">
          <mxGeometry x="652.5" y="280" width="90" height="40" as="geometry" />
        </mxCell>
        <mxCell id="55Ll8s9f8AJblrSIZAg2-37" value="&lt;b&gt;db&lt;/b&gt;" style="ellipse;whiteSpace=wrap;html=1;" vertex="1" parent="1">
          <mxGeometry x="752.5" y="280" width="90" height="40" as="geometry" />
        </mxCell>
        <mxCell id="55Ll8s9f8AJblrSIZAg2-38" value="" style="endArrow=none;html=1;rounded=0;exitX=0.5;exitY=0;exitDx=0;exitDy=0;" edge="1" parent="1" source="55Ll8s9f8AJblrSIZAg2-37">
          <mxGeometry width="50" height="50" relative="1" as="geometry">
            <mxPoint x="732.5" y="280" as="sourcePoint" />
            <mxPoint x="652.5" y="250" as="targetPoint" />
          </mxGeometry>
        </mxCell>
        <mxCell id="55Ll8s9f8AJblrSIZAg2-39" value="" style="endArrow=none;html=1;rounded=0;exitX=0.5;exitY=0;exitDx=0;exitDy=0;" edge="1" parent="1" source="55Ll8s9f8AJblrSIZAg2-34">
          <mxGeometry width="50" height="50" relative="1" as="geometry">
            <mxPoint x="732.5" y="280" as="sourcePoint" />
            <mxPoint x="652.5" y="250" as="targetPoint" />
          </mxGeometry>
        </mxCell>
        <mxCell id="55Ll8s9f8AJblrSIZAg2-40" value="" style="endArrow=none;html=1;rounded=0;exitX=0.5;exitY=0;exitDx=0;exitDy=0;" edge="1" parent="1" source="55Ll8s9f8AJblrSIZAg2-35">
          <mxGeometry width="50" height="50" relative="1" as="geometry">
            <mxPoint x="732.5" y="280" as="sourcePoint" />
            <mxPoint x="652.5" y="250" as="targetPoint" />
          </mxGeometry>
        </mxCell>
        <mxCell id="55Ll8s9f8AJblrSIZAg2-41" value="" style="endArrow=none;html=1;rounded=0;exitX=0.5;exitY=0;exitDx=0;exitDy=0;" edge="1" parent="1" source="55Ll8s9f8AJblrSIZAg2-36">
          <mxGeometry width="50" height="50" relative="1" as="geometry">
            <mxPoint x="732.5" y="280" as="sourcePoint" />
            <mxPoint x="652.5" y="250" as="targetPoint" />
          </mxGeometry>
        </mxCell>
        <mxCell id="55Ll8s9f8AJblrSIZAg2-42" value="&lt;b style=&quot;&quot;&gt;&lt;u&gt;tkod&lt;/u&gt;&lt;/b&gt;" style="ellipse;whiteSpace=wrap;html=1;" vertex="1" parent="1">
          <mxGeometry x="492.5" y="135" width="90" height="40" as="geometry" />
        </mxCell>
        <mxCell id="55Ll8s9f8AJblrSIZAg2-43" value="&lt;b&gt;egyseg_db&lt;/b&gt;" style="ellipse;whiteSpace=wrap;html=1;" vertex="1" parent="1">
          <mxGeometry x="495" y="140" width="85" height="30" as="geometry" />
        </mxCell>
        <mxCell id="55Ll8s9f8AJblrSIZAg2-44" value="" style="endArrow=none;html=1;rounded=0;exitX=0.5;exitY=1;exitDx=0;exitDy=0;entryX=0;entryY=0;entryDx=0;entryDy=0;" edge="1" parent="1" source="55Ll8s9f8AJblrSIZAg2-42" target="C64Jrk6upL9wqdpvDmy1-3">
          <mxGeometry width="50" height="50" relative="1" as="geometry">
            <mxPoint x="570.25" y="170" as="sourcePoint" />
            <mxPoint x="624.75" y="140" as="targetPoint" />
          </mxGeometry>
        </mxCell>
        <mxCell id="55Ll8s9f8AJblrSIZAg2-45" value="&lt;b&gt;A_T&lt;/b&gt;" style="shape=rhombus;whiteSpace=wrap;html=1;strokeWidth=3;" vertex="1" parent="1">
          <mxGeometry x="605" y="55" width="80" height="80" as="geometry" />
        </mxCell>
        <mxCell id="55Ll8s9f8AJblrSIZAg2-46" value="" style="endArrow=classic;html=1;rounded=0;exitX=0.5;exitY=1;exitDx=0;exitDy=0;" edge="1" parent="1" source="55Ll8s9f8AJblrSIZAg2-45">
          <mxGeometry width="50" height="50" relative="1" as="geometry">
            <mxPoint x="645" y="160" as="sourcePoint" />
            <mxPoint x="645" y="190" as="targetPoint" />
          </mxGeometry>
        </mxCell>
        <mxCell id="55Ll8s9f8AJblrSIZAg2-47" value="" style="endArrow=classic;html=1;rounded=0;exitX=0.5;exitY=0;exitDx=0;exitDy=0;" edge="1" parent="1">
          <mxGeometry width="50" height="50" relative="1" as="geometry">
            <mxPoint x="644.5" y="55" as="sourcePoint" />
            <mxPoint x="645" y="5" as="targetPoint" />
          </mxGeometry>
        </mxCell>
        <mxCell id="55Ll8s9f8AJblrSIZAg2-48" value="" style="endArrow=classic;html=1;rounded=0;exitX=0.5;exitY=0;exitDx=0;exitDy=0;" edge="1" parent="1">
          <mxGeometry width="50" height="50" relative="1" as="geometry">
            <mxPoint x="644.5" y="30" as="sourcePoint" />
            <mxPoint x="645" y="-20" as="targetPoint" />
          </mxGeometry>
        </mxCell>
        <mxCell id="55Ll8s9f8AJblrSIZAg2-49" value="" style="endArrow=classic;html=1;rounded=0;" edge="1" parent="1">
          <mxGeometry width="50" height="50" relative="1" as="geometry">
            <mxPoint x="645" y="150" as="sourcePoint" />
            <mxPoint x="644.5" y="180" as="targetPoint" />
          </mxGeometry>
        </mxCell>
        <mxCell id="55Ll8s9f8AJblrSIZAg2-51" value="&lt;b&gt;Vevo&lt;/b&gt;" style="rounded=0;whiteSpace=wrap;html=1;" vertex="1" parent="1">
          <mxGeometry x="585" y="-80" width="120" height="60" as="geometry" />
        </mxCell>
        <mxCell id="55Ll8s9f8AJblrSIZAg2-54" value="&lt;b style=&quot;&quot;&gt;nev&lt;/b&gt;" style="ellipse;whiteSpace=wrap;html=1;" vertex="1" parent="1">
          <mxGeometry x="742.5" y="-65" width="75" height="30" as="geometry" />
        </mxCell>
        <mxCell id="55Ll8s9f8AJblrSIZAg2-55" value="&lt;u&gt;&lt;b&gt;akod&lt;/b&gt;&lt;/u&gt;" style="ellipse;whiteSpace=wrap;html=1;" vertex="1" parent="1">
          <mxGeometry x="480" y="-65" width="75" height="30" as="geometry" />
        </mxCell>
        <mxCell id="55Ll8s9f8AJblrSIZAg2-59" value="" style="endArrow=none;html=1;rounded=0;entryX=0;entryY=0.5;entryDx=0;entryDy=0;" edge="1" parent="1" target="55Ll8s9f8AJblrSIZAg2-51">
          <mxGeometry width="50" height="50" relative="1" as="geometry">
            <mxPoint x="555" y="-50" as="sourcePoint" />
            <mxPoint x="605" y="-100" as="targetPoint" />
          </mxGeometry>
        </mxCell>
        <mxCell id="55Ll8s9f8AJblrSIZAg2-60" value="" style="endArrow=none;html=1;rounded=0;entryX=0;entryY=0.5;entryDx=0;entryDy=0;" edge="1" parent="1" target="55Ll8s9f8AJblrSIZAg2-54">
          <mxGeometry width="50" height="50" relative="1" as="geometry">
            <mxPoint x="705" y="-50.5" as="sourcePoint" />
            <mxPoint x="730" y="-50" as="targetPoint" />
          </mxGeometry>
        </mxCell>
      </root>
    </mxGraphModel>
  </diagram>
</mxfile>
